<svg width="224" height="194" viewBox="0 0 224 194" fill="none" xmlns="http://www.w3.org/2000/svg">
<g clip-path="url(#clip0_515_356)">
<path d="M139.437 139.84C141.101 136.256 142.701 132.768 144.237 129.376C145.837 125.984 147.277 122.464 148.557 118.816C149.645 117.024 150.925 115.936 152.397 115.552C153.869 115.104 155.213 115.168 156.429 115.744C157.645 116.32 158.541 117.344 159.117 118.816C159.757 120.224 159.693 121.888 158.925 123.808C156.237 129.056 153.229 134.048 149.901 138.784C146.637 143.52 143.437 148.288 140.301 153.088C137.229 157.824 134.477 162.72 132.045 167.776C129.613 172.832 127.949 178.304 127.053 184.192C129.357 182.592 131.501 180.8 133.484 178.816C135.469 176.832 137.613 175.104 139.917 173.632C141.581 172.48 143.405 171.52 145.389 170.752C147.437 169.984 149.421 169.184 151.341 168.352C153.133 168.288 154.605 168.672 155.757 169.504C156.909 170.272 157.645 171.232 157.965 172.384C158.349 173.536 158.253 174.752 157.677 176.032C157.165 177.376 156.141 178.496 154.605 179.392C153.517 179.712 152.429 180.032 151.341 180.352C150.317 180.672 149.261 180.992 148.173 181.312C147.981 181.376 147.533 181.504 146.829 181.696C146.189 181.952 145.773 182.112 145.581 182.176C145.325 182.304 144.973 182.464 144.525 182.656C144.141 182.848 144.013 182.88 144.141 182.752C142.541 183.712 140.941 184.8 139.341 186.016C137.805 187.232 136.205 188.384 134.541 189.472C132.941 190.56 131.277 191.456 129.549 192.16C127.821 192.928 126.029 193.312 124.173 193.312C123.405 193.184 122.797 192.992 122.349 192.736C121.901 192.544 121.421 192.192 120.909 191.68C120.269 190.528 119.853 189.312 119.661 188.032C119.533 186.752 119.565 185.44 119.757 184.096C119.949 182.752 120.237 181.408 120.621 180.064C121.069 178.72 121.517 177.44 121.965 176.224C120.045 176.544 118.093 176.896 116.109 177.28C114.189 177.664 112.301 177.824 110.445 177.76C107.564 177.568 104.684 177.28 101.804 176.896C99.8205 176.64 97.9965 176.128 96.3325 175.36C94.6045 174.656 93.3245 173.696 92.4925 172.48C91.5965 171.328 91.2445 169.984 91.4365 168.448C91.6285 166.912 92.6205 165.184 94.4125 163.264C96.0125 161.536 97.8365 160.032 99.8845 158.752C101.932 157.472 104.076 156.32 106.316 155.296C108.493 154.272 110.733 153.344 113.037 152.512C115.341 151.68 117.581 150.88 119.757 150.112C121.229 149.6 122.669 149.088 124.077 148.576C125.549 148 127.053 147.488 128.589 147.04C128.973 146.912 129.357 146.816 129.741 146.752C130.189 146.624 130.637 146.496 131.085 146.368C131.149 146.304 131.213 146.24 131.277 146.176C131.405 146.112 131.501 146.048 131.565 145.984C131.757 145.856 131.949 145.792 132.141 145.792C132.397 145.792 132.621 145.76 132.812 145.696C132.429 145.824 132.141 145.952 131.949 146.08C132.077 145.952 132.205 145.888 132.333 145.888C132.525 145.824 132.685 145.76 132.812 145.696C134.157 145.376 135.309 145.344 136.269 145.6C136.781 144.704 137.293 143.808 137.805 142.912C138.317 141.952 138.829 140.992 139.341 140.032L139.437 139.84C139.437 139.904 139.405 139.968 139.341 140.032C139.405 139.968 139.437 139.904 139.437 139.84ZM125.901 165.952C127.181 163.072 128.525 160.192 129.933 157.312C128.717 157.504 127.341 157.728 125.805 157.984C124.333 158.24 123.149 158.432 122.253 158.56C118.861 159.136 115.341 159.872 111.693 160.768C108.109 161.664 104.844 163.04 101.9 164.896C101.388 165.216 100.908 165.568 100.46 165.952C100.012 166.336 99.5965 166.784 99.2125 167.296C99.0845 167.488 98.9885 167.712 98.9245 167.968C98.7965 168.224 98.6685 168.48 98.5405 168.736C98.9885 168.864 99.8845 169.056 101.228 169.312C102.572 169.504 104.268 169.536 106.316 169.408C108.364 169.28 110.669 168.896 113.229 168.256C115.789 167.552 118.509 166.4 121.389 164.8C123.117 164.736 124.621 165.12 125.901 165.952ZM139.821 139.264C140.013 138.944 140.173 138.624 140.301 138.304C140.493 137.92 140.685 137.568 140.877 137.248C140.685 137.568 140.493 137.92 140.301 138.304C140.109 138.624 139.949 138.944 139.821 139.264ZM132.909 145.6L132.812 145.696L132.909 145.6ZM166.317 162.592C164.717 163.552 163.213 163.968 161.805 163.84C160.461 163.648 159.341 163.136 158.445 162.304C157.613 161.408 157.101 160.288 156.909 158.944C156.781 157.536 157.197 156.032 158.157 154.432C159.053 153.728 159.917 153.152 160.749 152.704C161.581 152.192 162.445 151.616 163.341 150.976C163.469 150.912 163.629 150.784 163.821 150.592C164.077 150.4 164.301 150.24 164.493 150.112C164.685 149.92 164.845 149.792 164.973 149.728C165.101 149.664 165.133 149.696 165.069 149.824C165.005 149.888 164.973 149.952 164.973 150.016C165.229 149.824 165.453 149.632 165.645 149.44C165.837 149.248 165.997 149.088 166.125 148.96C166.253 148.832 166.349 148.672 166.413 148.48C166.541 148.224 166.669 148 166.797 147.808C166.925 147.616 167.021 147.488 167.085 147.424C167.213 147.296 167.309 147.296 167.373 147.424C167.437 147.232 167.469 146.976 167.469 146.656C167.469 146.336 167.533 146.112 167.661 145.984C166.317 145.408 164.621 145.152 162.573 145.216C160.589 145.28 158.509 145.632 156.333 146.272C154.221 146.912 152.205 147.808 150.285 148.96C148.365 150.048 146.765 151.296 145.485 152.704C144.269 154.112 143.532 155.68 143.276 157.408C142.956 159.072 143.436 160.832 144.716 162.688C145.677 164.096 147.181 165.12 149.229 165.76C151.341 166.336 153.581 166.688 155.949 166.816C158.381 166.88 160.717 166.816 162.957 166.624C165.261 166.432 167.117 166.208 168.525 165.952C168.781 165.888 168.717 165.888 168.333 165.952C167.949 165.952 167.501 165.984 166.989 166.048C166.541 166.112 166.125 166.144 165.741 166.144C165.357 166.144 165.293 166.112 165.549 166.048C167.021 165.664 168.589 165.44 170.253 165.376C171.917 165.312 173.549 165.216 175.149 165.088C176.237 164.512 177.357 164.32 178.509 164.512C179.661 164.64 180.621 165.088 181.389 165.856C182.221 166.624 182.765 167.648 183.021 168.928C183.277 170.144 183.117 171.52 182.541 173.056C182.477 173.12 182.445 173.216 182.445 173.344C181.677 174.24 180.973 174.88 180.333 175.264C179.757 175.648 178.893 175.936 177.741 176.128C174.477 176.128 171.213 176.128 167.949 176.128C164.685 176.128 161.421 175.904 158.157 175.456C156.237 175.2 154.189 174.88 152.013 174.496C149.901 174.112 148.013 173.472 146.349 172.576C142.7 170.72 140.172 168.48 138.764 165.856C137.292 163.232 136.748 160.512 137.132 157.696C137.452 154.88 138.572 152.16 140.492 149.536C142.412 146.848 144.908 144.512 147.98 142.528C150.029 141.184 152.141 140.16 154.317 139.456C156.557 138.688 158.893 138.048 161.325 137.536C165.229 136.64 168.429 136.736 170.925 137.824C173.485 138.848 175.245 140.416 176.205 142.528C177.229 144.576 177.421 146.976 176.781 149.728C176.141 152.416 174.637 155.008 172.269 157.504C171.565 158.208 170.829 158.912 170.061 159.616C169.357 160.256 168.621 160.832 167.853 161.344C167.661 161.472 167.405 161.632 167.085 161.824C166.765 162.016 166.445 162.208 166.125 162.4C165.869 162.528 165.645 162.624 165.453 162.688C165.325 162.752 165.357 162.752 165.549 162.688C166.445 162.24 166.989 161.952 167.181 161.824C166.733 162.08 166.445 162.336 166.317 162.592ZM166.221 149.344C166.093 149.6 166.125 149.632 166.317 149.44C166.509 149.184 166.669 148.896 166.797 148.576C166.669 148.704 166.541 148.832 166.413 148.96C166.349 149.088 166.285 149.216 166.221 149.344ZM163.245 151.264C162.989 151.52 162.957 151.584 163.149 151.456C163.405 151.328 163.725 151.104 164.109 150.784C163.981 150.912 163.821 151.008 163.629 151.072C163.501 151.072 163.373 151.136 163.245 151.264ZM167.661 147.808V147.616V147.808ZM181.333 135.232C182.229 133.696 183.317 132.672 184.597 132.16C185.941 131.584 187.189 131.488 188.341 131.872C189.493 132.192 190.453 132.928 191.221 134.08C192.053 135.232 192.437 136.704 192.373 138.496C191.413 141.184 190.677 143.904 190.165 146.656C189.653 149.408 189.237 152.224 188.917 155.104C190.197 153.696 191.477 152.224 192.757 150.688C193.781 149.408 194.613 148 195.253 146.464C195.893 144.928 196.821 143.552 198.037 142.336C198.741 141.824 199.349 141.504 199.861 141.376C200.437 141.248 201.173 141.28 202.069 141.472C202.133 141.536 202.229 141.568 202.357 141.568C202.869 142.016 203.253 142.4 203.509 142.72C203.765 143.04 203.989 143.52 204.181 144.16C204.885 147.68 205.557 151.008 206.197 154.144C206.901 157.28 207.765 160.288 208.789 163.168C209.877 166.048 211.221 168.864 212.821 171.616C214.421 174.368 216.501 177.088 219.061 179.776C220.277 181.44 220.757 183.04 220.501 184.576C220.309 186.112 219.701 187.328 218.677 188.224C217.653 189.12 216.341 189.536 214.741 189.472C213.205 189.408 211.701 188.64 210.229 187.168C208.245 184.48 206.581 181.76 205.237 179.008C203.893 176.32 202.773 173.568 201.877 170.752C201.045 167.872 200.373 164.992 199.861 162.112C199.349 159.168 198.901 156.16 198.517 153.088C197.429 154.432 196.341 155.744 195.253 157.024C194.165 158.304 193.141 159.648 192.181 161.056C192.117 161.12 191.957 161.408 191.701 161.92C191.445 162.368 191.157 162.912 190.837 163.552C190.517 164.128 190.165 164.704 189.781 165.28C189.461 165.856 189.205 166.304 189.013 166.624V166.816C188.885 167.328 188.789 167.648 188.725 167.776C188.725 167.904 188.661 168.224 188.533 168.736C188.213 169.696 187.829 170.656 187.381 171.616C186.933 172.576 186.229 173.28 185.269 173.728C184.053 174.176 182.837 174.112 181.621 173.536C180.405 173.024 179.637 172.096 179.317 170.752C179.189 170.048 179.157 169.408 179.221 168.832C179.285 168.256 179.413 167.616 179.605 166.912C179.605 166.784 179.637 166.688 179.701 166.624C179.509 165.664 179.413 164.512 179.413 163.168C179.413 161.824 179.445 160.448 179.509 159.04C179.573 157.568 179.637 156.16 179.701 154.816C179.829 153.472 179.893 152.32 179.893 151.36C179.957 148.608 180.085 145.92 180.277 143.296C180.469 140.608 180.821 137.92 181.333 135.232Z" fill="#EBEBEB"/>
<path d="M23.1225 26.616C21.7145 26.4453 20.6905 25.976 20.0505 25.208C19.3678 24.3973 19.0478 23.544 19.0905 22.648C19.1332 21.752 19.5172 20.9413 20.2425 20.216C20.9678 19.448 22.0345 19.0213 23.4425 18.936C24.2958 19.064 25.1492 19.1493 26.0025 19.192C26.8985 19.2347 27.7732 19.4053 28.6265 19.704C28.7545 19.7467 28.7118 19.768 28.4985 19.768C28.2852 19.768 28.0292 19.7467 27.7305 19.704C27.4318 19.6613 27.1545 19.64 26.8985 19.64C26.6852 19.5973 26.6638 19.5973 26.8345 19.64C27.9865 19.9387 29.2238 20.152 30.5465 20.28C31.9118 20.3653 33.2985 20.3653 34.7065 20.28C36.2852 17.6773 37.7785 15.0533 39.1865 12.408C40.6372 9.76267 42.0878 7.096 43.5385 4.408L43.4105 4.536C43.3252 4.664 43.3465 4.57866 43.4745 4.28C43.6025 3.98133 43.7092 3.74666 43.7945 3.576C44.5198 2.38133 45.3732 1.656 46.3545 1.4C47.3358 1.10133 48.2318 1.144 49.0425 1.528C49.8532 1.912 50.4505 2.59466 50.8345 3.576C51.2612 4.51466 51.2185 5.624 50.7065 6.904C49.3412 9.08 47.8905 11.192 46.3545 13.24C44.8612 15.288 43.3038 17.3147 41.6825 19.32C43.3038 18.9787 44.8612 18.552 46.3545 18.04C47.8478 17.528 49.2345 16.9307 50.5145 16.248C51.7092 16.2053 52.6905 16.4613 53.4585 17.016C54.2265 17.528 54.7172 18.168 54.9305 18.936C55.1865 19.704 55.1225 20.536 54.7385 21.432C54.3972 22.2853 53.7145 23.0107 52.6905 23.608C50.2158 24.0347 47.7625 24.184 45.3305 24.056C42.8985 23.8853 40.4238 23.8427 37.9065 23.928C36.2425 26.0187 34.5998 28.1093 32.9785 30.2C31.3998 32.2907 29.8638 34.424 28.3705 36.6C26.8772 38.776 25.4052 40.952 23.9545 43.128C22.5465 45.304 21.1172 47.5013 19.6665 49.72C18.8132 51.0853 17.9812 52.5787 17.1705 54.2C16.3172 55.864 15.3145 57.2933 14.1625 58.488C12.9252 59.2133 11.7732 59.4267 10.7065 59.128C9.63983 58.8293 8.7865 58.0187 8.1465 56.696C7.93317 55.9707 7.8905 55.3093 8.0185 54.712C8.1465 54.1147 8.3385 53.496 8.5945 52.856C9.2345 51.7893 10.0025 51.0853 10.8985 50.744C11.1118 50.4453 11.3465 50.1467 11.6025 49.848C11.8158 49.5493 12.0292 49.272 12.2425 49.016C13.9065 47.096 15.5705 45.176 17.2345 43.256C18.8985 41.336 20.5412 39.3733 22.1625 37.368C23.0158 36.2587 23.9118 35.1707 24.8505 34.104C25.7892 33.0373 26.6852 31.928 27.5385 30.776C28.2638 29.7947 28.9678 28.8133 29.6505 27.832C30.3758 26.808 31.1012 25.784 31.8265 24.76C30.3332 25.0587 28.8612 25.3787 27.4105 25.72C25.9598 26.0613 24.5305 26.36 23.1225 26.616ZM58.066 12.088C58.6633 11.064 59.3887 10.3813 60.242 10.04C61.138 9.656 61.97 9.592 62.738 9.848C63.506 10.0613 64.146 10.552 64.658 11.32C65.2127 12.088 65.4687 13.0693 65.426 14.264C64.5727 16.6107 63.4847 19.0427 62.162 21.56C60.882 24.0773 59.4313 26.5307 57.81 28.92C59.6447 28.664 61.2447 28.5573 62.61 28.6C63.7193 28.6427 64.786 28.8347 65.81 29.176C66.834 29.5173 67.7087 30.0293 68.434 30.712C69.1593 31.352 69.6713 32.1627 69.97 33.144C70.3113 34.1253 70.3327 35.256 70.034 36.536C69.5647 38.584 68.5193 40.504 66.898 42.296C65.3193 44.088 63.506 45.752 61.458 47.288C59.4527 48.824 57.362 50.2533 55.186 51.576C53.0527 52.8987 51.218 54.136 49.682 55.288C49.554 55.3733 49.5327 55.3733 49.618 55.288C49.7033 55.2453 49.8313 55.16 50.002 55.032C50.1727 54.9467 50.3647 54.84 50.578 54.712C50.7913 54.6267 50.962 54.5413 51.09 54.456C51.1327 54.456 51.0473 54.4987 50.834 54.584C50.6633 54.712 50.4287 54.8613 50.13 55.032C49.874 55.2453 49.554 55.4587 49.17 55.672C48.8287 55.928 48.5087 56.1413 48.21 56.312C47.2713 56.9093 46.1833 57.4427 44.946 57.912C44.5193 57.9973 44.114 58.104 43.73 58.232C43.3887 58.36 43.1753 58.4453 43.09 58.488H43.154C42.3433 58.872 41.5327 58.9573 40.722 58.744C39.954 58.5307 39.3353 58.1253 38.866 57.528C38.354 56.9733 38.0553 56.248 37.97 55.352C37.8847 54.456 38.1407 53.5173 38.738 52.536C39.0367 52.1093 39.506 51.7467 40.146 51.448C40.786 51.192 41.362 51.0213 41.874 50.936C42.0447 50.8933 42.2793 50.8293 42.578 50.744C42.8767 50.6587 43.154 50.5733 43.41 50.488C43.666 50.4453 43.8367 50.4027 43.922 50.36C44.0073 50.36 43.9433 50.424 43.73 50.552C43.602 50.5947 43.4313 50.6373 43.218 50.68C43.0047 50.7653 42.7913 50.8293 42.578 50.872C42.4073 50.9147 42.2793 50.9573 42.194 51C42.1087 51.0427 42.13 51.064 42.258 51.064C42.77 51.064 43.3247 50.936 43.922 50.68C44.562 50.424 45.1807 50.1253 45.778 49.784C46.418 49.4427 47.0153 49.08 47.57 48.696C48.1673 48.3547 48.6793 48.0773 49.106 47.864C50.0873 47.352 51.4527 46.648 53.202 45.752C54.9513 44.856 56.6793 43.8533 58.386 42.744C60.1353 41.592 61.6927 40.3973 63.058 39.16C64.4233 37.9227 65.234 36.728 65.49 35.576C65.7887 34.2107 65.5113 33.336 64.658 32.952C63.8047 32.5253 62.6953 32.3973 61.33 32.568C60.0073 32.696 58.578 33.016 57.042 33.528C55.5487 33.9973 54.3113 34.4453 53.33 34.872C52.05 36.4507 50.6633 37.9227 49.17 39.288C48.6153 39.6293 48.0607 39.8 47.506 39.8C46.994 39.8 46.546 39.672 46.162 39.416C45.778 39.1173 45.5007 38.7333 45.33 38.264C45.1593 37.752 45.138 37.176 45.266 36.536C45.4367 36.1093 45.6287 35.7893 45.842 35.576C46.4393 34.424 47.25 33.4427 48.274 32.632C50.5353 29.6453 52.5193 26.3387 54.226 22.712C55.9753 19.0427 57.2553 15.5013 58.066 12.088ZM81.8985 36.728C80.8318 37.368 79.8292 37.6453 78.8905 37.56C77.9945 37.432 77.2478 37.0907 76.6505 36.536C76.0958 35.9387 75.7545 35.192 75.6265 34.296C75.5412 33.3573 75.8185 32.3547 76.4585 31.288C77.0558 30.8187 77.6318 30.4347 78.1865 30.136C78.7412 29.7947 79.3172 29.4107 79.9145 28.984C79.9998 28.9413 80.1065 28.856 80.2345 28.728C80.4052 28.6 80.5545 28.4933 80.6825 28.408C80.8105 28.28 80.9172 28.1947 81.0025 28.152C81.0878 28.1093 81.1092 28.1307 81.0665 28.216C81.0238 28.2587 81.0025 28.3013 81.0025 28.344C81.1732 28.216 81.3225 28.088 81.4505 27.96C81.5785 27.832 81.6852 27.7253 81.7705 27.64C81.8558 27.5547 81.9198 27.448 81.9625 27.32C82.0478 27.1493 82.1332 27 82.2185 26.872C82.3038 26.744 82.3678 26.6587 82.4105 26.616C82.4958 26.5307 82.5598 26.5307 82.6025 26.616C82.6452 26.488 82.6665 26.3173 82.6665 26.104C82.6665 25.8907 82.7092 25.7413 82.7945 25.656C81.8985 25.272 80.7678 25.1013 79.4025 25.144C78.0798 25.1867 76.6932 25.4213 75.2425 25.848C73.8345 26.2747 72.4905 26.872 71.2105 27.64C69.9305 28.3653 68.8638 29.1973 68.0105 30.136C67.1998 31.0747 66.7092 32.12 66.5385 33.272C66.3252 34.3813 66.6452 35.5547 67.4985 36.792C68.1385 37.7307 69.1412 38.4133 70.5065 38.84C71.9145 39.224 73.4078 39.4587 74.9865 39.544C76.6078 39.5867 78.1652 39.544 79.6585 39.416C81.1945 39.288 82.4318 39.1387 83.3705 38.968C83.5412 38.9253 83.4985 38.9253 83.2425 38.968C82.9865 38.968 82.6878 38.9893 82.3465 39.032C82.0478 39.0747 81.7705 39.096 81.5145 39.096C81.2585 39.096 81.2158 39.0747 81.3865 39.032C82.3678 38.776 83.4132 38.6267 84.5225 38.584C85.6318 38.5413 86.7198 38.4773 87.7865 38.392C88.5118 38.008 89.2585 37.88 90.0265 38.008C90.7945 38.0933 91.4345 38.392 91.9465 38.904C92.5012 39.416 92.8638 40.0987 93.0345 40.952C93.2052 41.7627 93.0985 42.68 92.7145 43.704C92.6718 43.7467 92.6505 43.8107 92.6505 43.896C92.1385 44.4933 91.6692 44.92 91.2425 45.176C90.8585 45.432 90.2825 45.624 89.5145 45.752C87.3385 45.752 85.1625 45.752 82.9865 45.752C80.8105 45.752 78.6345 45.6027 76.4585 45.304C75.1785 45.1333 73.8132 44.92 72.3625 44.664C70.9545 44.408 69.6958 43.9813 68.5865 43.384C66.1545 42.1467 64.4692 40.6533 63.5305 38.904C62.5492 37.1547 62.1865 35.3413 62.4425 33.464C62.6558 31.5867 63.4025 29.7733 64.6825 28.024C65.9625 26.232 67.6265 24.6747 69.6745 23.352C71.0398 22.456 72.4478 21.7733 73.8985 21.304C75.3918 20.792 76.9492 20.3653 78.5705 20.024C81.1732 19.4267 83.3065 19.4907 84.9705 20.216C86.6772 20.8987 87.8505 21.944 88.4905 23.352C89.1732 24.7173 89.3012 26.3173 88.8745 28.152C88.4478 29.944 87.4452 31.672 85.8665 33.336C85.3972 33.8053 84.9065 34.2747 84.3945 34.744C83.9252 35.1707 83.4345 35.5547 82.9225 35.896C82.7945 35.9813 82.6238 36.088 82.4105 36.216C82.1972 36.344 81.9838 36.472 81.7705 36.6C81.5998 36.6853 81.4505 36.7493 81.3225 36.792C81.2372 36.8347 81.2585 36.8347 81.3865 36.792C81.9838 36.4933 82.3465 36.3013 82.4745 36.216C82.1758 36.3867 81.9838 36.5573 81.8985 36.728ZM81.8345 27.896C81.7492 28.0667 81.7705 28.088 81.8985 27.96C82.0265 27.7893 82.1332 27.5973 82.2185 27.384C82.1332 27.4693 82.0478 27.5547 81.9625 27.64C81.9198 27.7253 81.8772 27.8107 81.8345 27.896ZM79.8505 29.176C79.6798 29.3467 79.6585 29.3893 79.7865 29.304C79.9572 29.2187 80.1705 29.0693 80.4265 28.856C80.3412 28.9413 80.2345 29.0053 80.1065 29.048C80.0212 29.048 79.9358 29.0907 79.8505 29.176ZM82.7945 26.872V26.744V26.872Z" fill="#EBEBEB"/>
<g filter="url(#filter0_d_515_356)">
<mask id="path-3-outside-1_515_356" maskUnits="userSpaceOnUse" x="5" y="61" width="209" height="66" fill="black">
<rect fill="white" x="5" y="61" width="209" height="66"/>
<path d="M24.5794 76.52V111.848C24.5794 112.552 24.7714 113.096 25.1554 113.48C25.5394 113.8 26.1474 113.96 26.9794 113.96H29.4754V125H21.8914C16.7714 125 13.1234 123.912 10.9474 121.736C8.83537 119.56 7.77937 116.68 7.77937 113.096V75.272C7.77937 71.688 8.83537 68.808 10.9474 66.632C13.1234 64.456 16.7714 63.368 21.8914 63.368H29.4754V74.408H26.9794C26.1474 74.408 25.5394 74.6 25.1554 74.984C24.7714 75.304 24.5794 75.816 24.5794 76.52ZM32.7394 86.408V76.52C32.7394 75.816 32.5474 75.304 32.1634 74.984C31.7794 74.6 31.1714 74.408 30.3394 74.408H27.8434V63.368H35.4274C40.5474 63.368 44.1634 64.456 46.2754 66.632C48.4514 68.808 49.5394 71.688 49.5394 75.272V86.408H32.7394ZM32.7394 111.848V102.344H49.5394V113.096C49.5394 116.68 48.4514 119.56 46.2754 121.736C44.1634 123.912 40.5474 125 35.4274 125H27.8434V113.96H30.3394C31.1714 113.96 31.7794 113.8 32.1634 113.48C32.5474 113.096 32.7394 112.552 32.7394 111.848ZM86.5106 88.616V100.616H69.2306V88.616H86.5106ZM55.7906 63.368H72.3026V125H55.7906V63.368ZM84.3986 63.368H100.911V125H84.3986V63.368ZM108.572 63.368H125.372V125H108.572V63.368ZM133.041 63.368H149.841V125H133.041V63.368ZM138.609 125V113H168.945V125H138.609ZM175.671 63.368H192.471V125H175.671V63.368ZM181.239 125V113H211.575V125H181.239Z"/>
</mask>
<path d="M25.1554 113.48L23.7412 114.894C23.7839 114.937 23.8286 114.978 23.875 115.016L25.1554 113.48ZM29.4754 113.96H31.4754C31.4754 112.855 30.5799 111.96 29.4754 111.96V113.96ZM29.4754 125V127C30.5799 127 31.4754 126.105 31.4754 125H29.4754ZM10.9474 121.736L9.51221 123.129C9.51914 123.136 9.52612 123.143 9.53316 123.15L10.9474 121.736ZM10.9474 66.632L9.53316 65.2178C9.52612 65.2248 9.51914 65.2319 9.51221 65.239L10.9474 66.632ZM29.4754 63.368H31.4754C31.4754 62.2634 30.5799 61.368 29.4754 61.368V63.368ZM29.4754 74.408V76.408C30.5799 76.408 31.4754 75.5126 31.4754 74.408H29.4754ZM25.1554 74.984L26.4357 76.5204C26.4822 76.4817 26.5268 76.441 26.5696 76.3982L25.1554 74.984ZM32.7394 86.408H30.7394C30.7394 87.5126 31.6348 88.408 32.7394 88.408V86.408ZM32.1634 74.984L30.7492 76.3982C30.7919 76.441 30.8366 76.4817 30.883 76.5204L32.1634 74.984ZM27.8434 74.408H25.8434C25.8434 75.5126 26.7388 76.408 27.8434 76.408V74.408ZM27.8434 63.368V61.368C26.7388 61.368 25.8434 62.2634 25.8434 63.368H27.8434ZM46.2754 66.632L44.8402 68.0249C44.8471 68.0321 44.8541 68.0392 44.8612 68.0462L46.2754 66.632ZM49.5394 86.408V88.408C50.6439 88.408 51.5394 87.5126 51.5394 86.408H49.5394ZM32.7394 102.344V100.344C31.6348 100.344 30.7394 101.239 30.7394 102.344H32.7394ZM49.5394 102.344H51.5394C51.5394 101.239 50.6439 100.344 49.5394 100.344V102.344ZM46.2754 121.736L44.8612 120.322C44.8541 120.329 44.8471 120.336 44.8402 120.343L46.2754 121.736ZM27.8434 125H25.8434C25.8434 126.105 26.7388 127 27.8434 127V125ZM27.8434 113.96V111.96C26.7388 111.96 25.8434 112.855 25.8434 113.96H27.8434ZM32.1634 113.48L33.4437 115.016C33.4902 114.978 33.5348 114.937 33.5776 114.894L32.1634 113.48ZM22.5794 76.52V111.848H26.5794V76.52H22.5794ZM22.5794 111.848C22.5794 112.918 22.8802 114.033 23.7412 114.894L26.5696 112.066C26.5827 112.079 26.5942 112.094 26.6027 112.107C26.6109 112.121 26.612 112.126 26.6094 112.118C26.6034 112.101 26.5794 112.022 26.5794 111.848H22.5794ZM23.875 115.016C24.79 115.779 25.9663 115.96 26.9794 115.96V111.96C26.6834 111.96 26.5027 111.931 26.4084 111.906C26.3167 111.882 26.3526 111.874 26.4357 111.944L23.875 115.016ZM26.9794 115.96H29.4754V111.96H26.9794V115.96ZM27.4754 113.96V125H31.4754V113.96H27.4754ZM29.4754 123H21.8914V127H29.4754V123ZM21.8914 123C16.9686 123 13.979 121.939 12.3616 120.322L9.53316 123.15C12.2677 125.885 16.5741 127 21.8914 127V123ZM12.3825 120.343C10.6977 118.607 9.77937 116.261 9.77937 113.096H5.77937C5.77937 117.099 6.97309 120.513 9.51221 123.129L12.3825 120.343ZM9.77937 113.096V75.272H5.77937V113.096H9.77937ZM9.77937 75.272C9.77937 72.1068 10.6977 69.7609 12.3825 68.0249L9.51221 65.239C6.97309 67.8551 5.77937 71.2692 5.77937 75.272H9.77937ZM12.3616 68.0462C13.979 66.4288 16.9686 65.368 21.8914 65.368V61.368C16.5741 61.368 12.2677 62.4832 9.53316 65.2178L12.3616 68.0462ZM21.8914 65.368H29.4754V61.368H21.8914V65.368ZM27.4754 63.368V74.408H31.4754V63.368H27.4754ZM29.4754 72.408H26.9794V76.408H29.4754V72.408ZM26.9794 72.408C25.8935 72.408 24.6587 72.6523 23.7412 73.5698L26.5696 76.3982C26.498 76.4698 26.4507 76.4753 26.5016 76.4592C26.5618 76.4402 26.709 76.408 26.9794 76.408V72.408ZM23.875 73.4476C22.8711 74.2842 22.5794 75.4753 22.5794 76.52H26.5794C26.5794 76.4339 26.5853 76.3753 26.5909 76.3399C26.5964 76.3048 26.6009 76.2973 26.596 76.3102C26.5908 76.3241 26.5767 76.3566 26.5478 76.3984C26.5182 76.4411 26.4802 76.4834 26.4357 76.5204L23.875 73.4476ZM34.7394 86.408V76.52H30.7394V86.408H34.7394ZM34.7394 76.52C34.7394 75.4753 34.4477 74.2842 33.4437 73.4476L30.883 76.5204C30.8385 76.4834 30.8005 76.4411 30.771 76.3984C30.742 76.3566 30.7279 76.3241 30.7227 76.3102C30.7179 76.2973 30.7223 76.3048 30.7278 76.3399C30.7334 76.3753 30.7394 76.4339 30.7394 76.52H34.7394ZM33.5776 73.5698C32.6601 72.6523 31.4253 72.408 30.3394 72.408V76.408C30.6097 76.408 30.7569 76.4402 30.8171 76.4592C30.8681 76.4753 30.8208 76.4698 30.7492 76.3982L33.5776 73.5698ZM30.3394 72.408H27.8434V76.408H30.3394V72.408ZM29.8434 74.408V63.368H25.8434V74.408H29.8434ZM27.8434 65.368H35.4274V61.368H27.8434V65.368ZM35.4274 65.368C40.3582 65.368 43.2943 66.4322 44.8402 68.0249L47.7105 65.239C45.0325 62.4798 40.7366 61.368 35.4274 61.368V65.368ZM44.8612 68.0462C46.6003 69.7853 47.5394 72.1241 47.5394 75.272H51.5394C51.5394 71.2519 50.3025 67.8307 47.6896 65.2178L44.8612 68.0462ZM47.5394 75.272V86.408H51.5394V75.272H47.5394ZM49.5394 84.408H32.7394V88.408H49.5394V84.408ZM34.7394 111.848V102.344H30.7394V111.848H34.7394ZM32.7394 104.344H49.5394V100.344H32.7394V104.344ZM47.5394 102.344V113.096H51.5394V102.344H47.5394ZM47.5394 113.096C47.5394 116.244 46.6003 118.583 44.8612 120.322L47.6896 123.15C50.3025 120.537 51.5394 117.116 51.5394 113.096H47.5394ZM44.8402 120.343C43.2943 121.936 40.3582 123 35.4274 123V127C40.7366 127 45.0325 125.888 47.7105 123.129L44.8402 120.343ZM35.4274 123H27.8434V127H35.4274V123ZM29.8434 125V113.96H25.8434V125H29.8434ZM27.8434 115.96H30.3394V111.96H27.8434V115.96ZM30.3394 115.96C31.3525 115.96 32.5288 115.779 33.4437 115.016L30.883 111.944C30.9661 111.874 31.0021 111.882 30.9104 111.906C30.8161 111.931 30.6354 111.96 30.3394 111.96V115.96ZM33.5776 114.894C34.4386 114.033 34.7394 112.918 34.7394 111.848H30.7394C30.7394 112.022 30.7154 112.101 30.7094 112.118C30.7067 112.126 30.7079 112.121 30.7161 112.107C30.7246 112.094 30.736 112.079 30.7492 112.066L33.5776 114.894ZM86.5106 88.616H88.5106C88.5106 87.5114 87.6152 86.616 86.5106 86.616V88.616ZM86.5106 100.616V102.616C87.6152 102.616 88.5106 101.721 88.5106 100.616H86.5106ZM69.2306 100.616H67.2306C67.2306 101.721 68.1261 102.616 69.2306 102.616V100.616ZM69.2306 88.616V86.616C68.1261 86.616 67.2306 87.5114 67.2306 88.616H69.2306ZM55.7906 63.368V61.368C54.6861 61.368 53.7906 62.2634 53.7906 63.368H55.7906ZM72.3026 63.368H74.3026C74.3026 62.2634 73.4072 61.368 72.3026 61.368V63.368ZM72.3026 125V127C73.4072 127 74.3026 126.105 74.3026 125H72.3026ZM55.7906 125H53.7906C53.7906 126.105 54.6861 127 55.7906 127V125ZM84.3986 63.368V61.368C83.2941 61.368 82.3986 62.2634 82.3986 63.368H84.3986ZM100.911 63.368H102.911C102.911 62.2634 102.015 61.368 100.911 61.368V63.368ZM100.911 125V127C102.015 127 102.911 126.105 102.911 125H100.911ZM84.3986 125H82.3986C82.3986 126.105 83.2941 127 84.3986 127V125ZM84.5106 88.616V100.616H88.5106V88.616H84.5106ZM86.5106 98.616H69.2306V102.616H86.5106V98.616ZM71.2306 100.616V88.616H67.2306V100.616H71.2306ZM69.2306 90.616H86.5106V86.616H69.2306V90.616ZM55.7906 65.368H72.3026V61.368H55.7906V65.368ZM70.3026 63.368V125H74.3026V63.368H70.3026ZM72.3026 123H55.7906V127H72.3026V123ZM57.7906 125V63.368H53.7906V125H57.7906ZM84.3986 65.368H100.911V61.368H84.3986V65.368ZM98.9106 63.368V125H102.911V63.368H98.9106ZM100.911 123H84.3986V127H100.911V123ZM86.3986 125V63.368H82.3986V125H86.3986ZM108.572 63.368V61.368C107.467 61.368 106.572 62.2634 106.572 63.368H108.572ZM125.372 63.368H127.372C127.372 62.2634 126.476 61.368 125.372 61.368V63.368ZM125.372 125V127C126.476 127 127.372 126.105 127.372 125H125.372ZM108.572 125H106.572C106.572 126.105 107.467 127 108.572 127V125ZM108.572 65.368H125.372V61.368H108.572V65.368ZM123.372 63.368V125H127.372V63.368H123.372ZM125.372 123H108.572V127H125.372V123ZM110.572 125V63.368H106.572V125H110.572ZM133.041 63.368V61.368C131.936 61.368 131.041 62.2634 131.041 63.368H133.041ZM149.841 63.368H151.841C151.841 62.2634 150.945 61.368 149.841 61.368V63.368ZM149.841 125V127C150.945 127 151.841 126.105 151.841 125H149.841ZM133.041 125H131.041C131.041 126.105 131.936 127 133.041 127V125ZM138.609 125H136.609C136.609 126.105 137.504 127 138.609 127V125ZM138.609 113V111C137.504 111 136.609 111.895 136.609 113H138.609ZM168.945 113H170.945C170.945 111.895 170.049 111 168.945 111V113ZM168.945 125V127C170.049 127 170.945 126.105 170.945 125H168.945ZM133.041 65.368H149.841V61.368H133.041V65.368ZM147.841 63.368V125H151.841V63.368H147.841ZM149.841 123H133.041V127H149.841V123ZM135.041 125V63.368H131.041V125H135.041ZM140.609 125V113H136.609V125H140.609ZM138.609 115H168.945V111H138.609V115ZM166.945 113V125H170.945V113H166.945ZM168.945 123H138.609V127H168.945V123ZM175.671 63.368V61.368C174.566 61.368 173.671 62.2634 173.671 63.368H175.671ZM192.471 63.368H194.471C194.471 62.2634 193.575 61.368 192.471 61.368V63.368ZM192.471 125V127C193.575 127 194.471 126.105 194.471 125H192.471ZM175.671 125H173.671C173.671 126.105 174.566 127 175.671 127V125ZM181.239 125H179.239C179.239 126.105 180.134 127 181.239 127V125ZM181.239 113V111C180.134 111 179.239 111.895 179.239 113H181.239ZM211.575 113H213.575C213.575 111.895 212.679 111 211.575 111V113ZM211.575 125V127C212.679 127 213.575 126.105 213.575 125H211.575ZM175.671 65.368H192.471V61.368H175.671V65.368ZM190.471 63.368V125H194.471V63.368H190.471ZM192.471 123H175.671V127H192.471V123ZM177.671 125V63.368H173.671V125H177.671ZM183.239 125V113H179.239V125H183.239ZM181.239 115H211.575V111H181.239V115ZM209.575 113V125H213.575V113H209.575ZM211.575 123H181.239V127H211.575V123Z" fill="#EBEBEB" mask="url(#path-3-outside-1_515_356)"/>
</g>
</g>
<defs>
<filter id="filter0_d_515_356" x="2.77942" y="58.3679" width="213.795" height="71.6321" filterUnits="userSpaceOnUse" color-interpolation-filters="sRGB">
<feFlood flood-opacity="0" result="BackgroundImageFix"/>
<feColorMatrix in="SourceAlpha" type="matrix" values="0 0 0 0 0 0 0 0 0 0 0 0 0 0 0 0 0 0 127 0" result="hardAlpha"/>
<feOffset/>
<feGaussianBlur stdDeviation="2.5"/>
<feComposite in2="hardAlpha" operator="out"/>
<feColorMatrix type="matrix" values="0 0 0 0 1 0 0 0 0 1 0 0 0 0 1 0 0 0 0.5 0"/>
<feBlend mode="normal" in2="BackgroundImageFix" result="effect1_dropShadow_515_356"/>
<feBlend mode="normal" in="SourceGraphic" in2="effect1_dropShadow_515_356" result="shape"/>
</filter>
<clipPath id="clip0_515_356">
<rect width="224" height="193.677" fill="white"/>
</clipPath>
</defs>
</svg>
